<?xml version="1.0"?><svg xmlns="http://www.w3.org/2000/svg" xmlns:xlink="http://www.w3.org/1999/xlink" width="1280" height="832" viewBox="0 0 1280 832"><path fill="#1B3070" d="M317.004 339.064C356.469 336.52 390.139 371.831 389.526 410.286C389.361 420.639 386.608 427.735 382.879 437.053C375.882 431.844 366.4 420.911 358.246 414.344C357.168 394.084 351.68 376.583 329.675 371.034C319.296 368.349 308.276 369.914 299.055 375.383C278.386 387.823 274.656 411.765 287.076 431.66C296.749 445.158 308.874 447.925 324.446 448.134C331.032 453.123 344.242 466.743 350.553 472.989C342.997 476.287 334.956 478.338 326.742 479.063C307.684 480.823 288.716 474.868 274.083 462.529C259.904 450.417 251.152 433.142 249.773 414.544C248.117 396.238 253.893 378.036 265.802 364.036C279.419 348.059 296.443 340.782 317.004 339.064Z"></path><path fill="#1B3070" d="M465.312 347.165C468.246 347.004 471.73 346.799 474.629 347.104C503.82 350.184 518.48 381.701 501.801 405.839C505.173 407.448 506.896 408.523 510.042 410.582C508.277 415.007 504.329 422.44 502.114 427.123C498.078 423.986 494.24 420.091 490.542 416.527C486.984 417.034 481.886 418.459 478.194 419.341C443.448 427.64 422.471 391.171 440.363 362.692C445.841 353.974 455.058 349.154 465.312 347.165ZM480.349 405.397L473.94 402.034C470.829 400.047 466.04 396.783 462.867 395.216L489.527 395.03C494.502 375.463 489.962 360.036 466.892 361.435C453.414 367.28 445.371 379.005 451.717 393.638C453.927 398.855 458.154 402.955 463.436 405.003C469.294 407.244 474.337 406.563 480.349 405.397Z"></path><path fill="#1B3070" d="M916.7 346.526C937.389 344.97 955.413 360.503 956.931 381.198C958.449 401.893 942.884 419.89 922.19 421.37C901.55 422.845 883.613 407.328 882.099 386.688C880.585 366.048 896.066 348.079 916.7 346.526ZM922.111 405.714C934.056 404.252 942.564 393.397 941.131 381.447C939.699 369.497 928.866 360.961 916.914 362.365C904.921 363.774 896.351 374.654 897.788 386.645C899.226 398.636 910.125 407.181 922.111 405.714Z"></path><path fill="#1B3070" d="M626.518 346.603C646.888 345.683 664.219 361.296 665.427 381.654C666.635 402.011 651.271 419.565 630.936 421.06C617.523 422.047 604.618 415.734 597.163 404.539C589.707 393.344 588.856 379.001 594.936 367.003C601.015 355.005 613.083 347.21 626.518 346.603ZM633.298 405.089C645.066 402.381 652.413 390.649 649.714 378.877C647.014 367.106 635.288 359.75 623.517 362.442C611.735 365.137 604.37 376.878 607.073 388.66C609.775 400.443 621.52 407.8 633.298 405.089Z"></path><path fill="#1B3070" d="M966.615 347.582C971.849 347.401 976.569 347.448 981.807 347.551C992.321 360.391 1002.87 379.907 1013.71 393.89C1013.76 378.487 1013.7 363.084 1013.54 347.682L1029.21 347.531C1029.76 371.25 1028.79 396.233 1029.31 420.551C1026.24 421.369 1017.2 420.795 1013.79 420.601C1003.22 405.754 993.641 390.241 982.491 375.675C982.383 390.875 982.388 406.077 982.505 421.277L966.511 421.287C965.825 397.258 966.798 371.898 966.615 347.582Z"></path><path fill="#1B3070" d="M738.786 347.563C747.356 347.323 756.519 347.487 765.133 347.491C774.718 371.854 782.974 396.223 792.438 420.627L775.01 420.581C773.933 417.142 771.304 408.201 769.249 405.672C761.432 405.668 749.241 405.959 741.79 405.167L736.674 420.175C731.131 420.087 725.585 420.136 720.044 420.322C727.22 398.763 735.593 375.131 744.692 354.312C742.228 351.98 740.899 350.245 738.786 347.563ZM746.744 393.26L757.656 393.263L765.6 393.263C762.72 384.138 759.811 373.604 756.486 364.792C752.781 374.458 749.545 383.21 746.744 393.26Z"></path><path fill="#1B3070" d="M515.815 347.793C522.193 347.413 529.758 347.586 536.234 347.583C536.364 363.01 534.988 378.807 536.409 394.08C538.062 411.846 562.908 410.013 564.852 394.324C566.46 381.341 565.568 366.154 565.486 352.891C563.747 351.496 561.471 349.289 559.771 347.733C566.877 347.491 574.703 347.638 581.864 347.626L581.877 354.897C582.028 382.645 589.422 420.81 550.314 420.924C522.826 421.004 519.147 404.675 519.795 381.103C520.044 372.068 519.857 362.048 519.908 352.968C518.241 351.249 516.716 349.979 515.815 347.793Z"></path><path fill="#1B3070" d="M347.756 425.161C348.434 425.097 349.115 425.069 349.797 425.076C358.108 425.091 377.434 447.35 384.662 454.527L395.594 442.625L395.627 485.672L383.906 485.65C373.542 485.538 363.177 485.77 352.828 486.347C357.225 481.533 361.642 477.657 366.488 473.304C360.839 467.707 354.979 462.383 349.278 456.915C343.691 451.556 334.536 443.409 337.007 434.815C338.458 429.767 343.457 427.325 347.756 425.161Z"></path><path fill="#1B3070" d="M678.329 347.226C694.905 347.144 711.481 347.249 728.054 347.543L728.087 363.076C719.998 362.768 713.005 362.607 704.867 362.757L704.861 407.448L704.914 420.075L688.711 420.028L688.681 363.09C681.58 362.75 672.76 363.113 665.537 363.223L665.581 347.556L678.329 347.226Z"></path><path fill="#1B3070" d="M846.193 347.494L846.167 363.077C838.513 362.834 830.856 362.719 823.199 362.73L822.838 398.341C822.81 405.629 823.02 413.215 823.116 420.527L806.945 420.548L807.052 362.731C799.585 362.508 791.248 362.915 783.717 363.13L783.788 347.537C804.495 347.303 825.474 347.459 846.193 347.494Z"></path><path fill="#F6A624" d="M315.099 383.592C327.814 381.561 339.784 390.175 341.899 402.878C344.014 415.581 335.481 427.61 322.794 429.809C309.988 432.029 297.823 423.396 295.688 410.574C293.554 397.751 302.265 385.642 315.099 383.592Z"></path><path fill="#1B3070" d="M871.894 442.124C873.349 442.034 874.806 441.983 876.263 441.972C882.558 441.966 888.056 443.686 892.553 448.267C896.573 452.409 898.776 457.982 898.677 463.753C898.574 471.534 895.074 476.513 889.824 481.741C891.94 484.138 896.812 488.943 897.959 491.472L897.023 492.164C895.353 491.995 893.892 491.443 892.287 490.937L885.765 483.562C879.711 484.734 873.127 485.205 867.308 482.801C862.264 480.75 858.292 476.704 856.334 471.623C850.964 457.961 859.115 446.862 871.894 442.124ZM879.403 476.092C877.916 474.323 877.001 473.865 876.744 471.884C880.999 469.681 885.026 474.993 887.136 478.022C897.981 464.616 895.741 447.89 876.801 445.851C859.28 448.982 853.773 465.849 867.37 478.436C870.097 480.96 879.034 480.718 882.795 480.371C881.665 478.34 880.971 477.719 879.403 476.092Z"></path><path fill="#1B3070" d="M506.699 442.266C518.324 439.317 530.132 446.381 533.033 458.02C535.935 469.659 528.824 481.44 517.175 484.294C505.593 487.132 493.897 480.07 491.012 468.498C488.127 456.926 495.14 445.199 506.699 442.266ZM513.432 480.481C522.819 479.737 529.884 471.617 529.323 462.215C528.762 452.814 520.781 445.592 511.372 445.97C505.121 446.222 499.494 449.832 496.659 455.409C493.823 460.986 494.221 467.66 497.7 472.86C501.179 478.06 507.195 480.974 513.432 480.481Z"></path><path fill="#1B3070" d="M850.656 347.826C857.153 347.448 865.522 347.629 872.16 347.584C872.625 354.71 872.292 365.656 872.275 373.046C872.196 388.514 872.222 403.983 872.354 419.45L855.598 419.456C855.31 397.36 855.802 375.391 855.393 353.126C853.271 351.086 852.333 350.268 850.656 347.826Z"></path><path fill="#1B3070" d="M584.817 442.708C596.049 441.447 604.406 444.259 609.007 454.897L608.294 455.773C602.08 453.867 597.742 446.187 590.755 446.11C567.85 445.857 567.125 481.117 590.07 480.976C595.113 480.946 606.354 473.149 605.44 466.921L604.225 466.136C599.308 465.308 592.843 466.89 588.587 464.439L588.911 463.668C594.125 461.62 604.833 462.093 610.534 462.56C610.187 466.295 610.024 469 608.579 472.462C603.902 483.665 589.905 487.641 579.199 482.565C574.283 480.269 570.53 476.05 568.823 470.9C564.082 456.758 571.665 447.015 584.817 442.708Z"></path><path fill="#1B3070" d="M696.801 442.074C701.143 441.839 706.556 441.732 710.485 443.852C713.319 445.382 716.507 449.923 714.298 452.995L712.803 453.201C708.973 451.376 702.157 436.73 693.047 450.82C689.793 457.642 704.773 461.747 708.434 463.338C721.583 469.052 719.858 480.383 706.623 484.462C700.06 484.579 689.196 484.842 687.198 475.815C686.94 474.647 687.501 474.265 688.172 473.486C691.662 473.856 696.23 479.49 700.883 480.818C705.115 482.025 711.233 479.326 711.783 474.984C713.16 463.097 692.846 466.629 689.152 458.773C685.249 450.471 689.909 445.418 696.801 442.074Z"></path><path fill="#1B3070" d="M933.919 442.399L937.263 442.721C943.901 448.492 933.598 476.426 944.748 479.722C972.601 487.955 954.373 446.257 964.217 442.28C965.884 443.609 965.393 442.89 965.713 445.536C965.664 455.411 968.088 473.059 961.362 480.784C956.375 486.501 943.541 485.788 938.634 480.37C931.3 472.273 933.71 452.888 933.919 442.399Z"></path><path fill="#1B3070" d="M1003.34 442.584C1007.29 442.42 1023.45 441.48 1025.48 444.353C1022.75 446.398 1011.97 446.097 1008.13 446.173L1008.06 461.33L1008.06 465.1C1008.21 470.097 1008.09 475.722 1008.1 480.771C1011.77 480.888 1022.75 480.854 1025.47 482.476L1025.33 483.172C1020.86 485.049 1008.9 484.635 1003.48 484.645C1003.53 470.566 1003.07 456.767 1003.34 442.584Z"></path><path fill="#1B3070" d="M752.34 442.78C757.988 442.476 773.852 441.48 778.456 443.46L778.649 444.29C776.383 446.398 770.135 446.207 766.935 446.312L767.171 475.67C767.17 479.112 767.902 482.59 764.994 484.697L764.09 484.284C761.402 479.77 762.43 453.206 762.463 445.86C759.419 445.776 753.635 446.001 751.162 445.096L750.818 444.07L752.34 442.78Z"></path><path fill="#1B3070" d="M437.272 442.374C439.335 442.538 440.475 442.274 441.938 443.357C442.967 447.974 442.397 474.829 442.349 481.273C447.74 481.087 455.804 479.532 458.941 484.215C452.843 484.753 443.818 484.481 437.499 484.473C437.543 470.44 437.468 456.406 437.272 442.374Z"></path><path fill="#1B3070" d="M814.358 442.405C816.316 442.406 816.767 442.45 818.672 442.897C820.129 445.21 819.365 479.79 819.329 485.173C817.293 485.186 817.03 485.273 815.178 484.562C813.571 482.1 814.329 447.944 814.358 442.405Z"></path><path fill="#1B3070" d="M645.676 442.343C647.272 442.506 647.824 442.621 649.379 443.026C650.683 445.126 650.098 480.003 650.081 485.203C648.443 484.752 648.184 484.666 646.691 483.873C644.583 479.504 645.587 449.282 645.676 442.343Z"></path><path fill="#3A4C7A" d="M1008.06 461.33C1012.11 461.227 1020.78 460.481 1023.86 462.975C1022.23 465.866 1011.32 465.142 1008.06 465.1L1008.06 461.33Z"></path></svg>