<svg xmlns="http://www.w3.org/2000/svg" viewBox="235 325 175 175"><path fill="#1B3070" d="M317.004 339.064C356.469 336.52 390.139 371.831 389.526 410.286C389.361 420.639 386.608 427.735 382.879 437.053C375.882 431.844 366.4 420.911 358.246 414.344C357.168 394.084 351.68 376.583 329.675 371.034C319.296 368.349 308.276 369.914 299.055 375.383C278.386 387.823 274.656 411.765 287.076 431.66C296.749 445.158 308.874 447.925 324.446 448.134C331.032 453.123 344.242 466.743 350.553 472.989C342.997 476.287 334.956 478.338 326.742 479.063C307.684 480.823 288.716 474.868 274.083 462.529C259.904 450.417 251.152 433.142 249.773 414.544C248.117 396.238 253.893 378.036 265.802 364.036C279.419 348.059 296.443 340.782 317.004 339.064Z"></path><path fill="#F6A624" d="M315.099 383.592C327.814 381.561 339.784 390.175 341.899 402.878C344.014 415.581 335.481 427.61 322.794 429.809C309.988 432.029 297.823 423.396 295.688 410.574C293.554 397.751 302.265 385.642 315.099 383.592Z"></path><path fill="#1B3070" d="M347.756 425.161C348.434 425.097 349.115 425.069 349.797 425.076C358.108 425.091 377.434 447.35 384.662 454.527L395.594 442.625L395.627 485.672L383.906 485.65C373.542 485.538 363.177 485.77 352.828 486.347C357.225 481.533 361.642 477.657 366.488 473.304C360.839 467.707 354.979 462.383 349.278 456.915C343.691 451.556 334.536 443.409 337.007 434.815C338.458 429.767 343.457 427.325 347.756 425.161Z"></path></svg>